<svg width="147" height="22" viewBox="0 0 147 22" fill="none" xmlns="http://www.w3.org/2000/svg">
<path d="M14.5001 20.5268V17.6568C14.5376 17.18 14.4732 16.7006 14.3111 16.2506C14.149 15.8006 13.893 15.3902 13.5601 15.0468C16.7001 14.6968 20.0001 13.5068 20.0001 8.04679C19.9998 6.65062 19.4628 5.30799 18.5001 4.29679C18.9559 3.0753 18.9237 1.72514 18.4101 0.526793C18.4101 0.526793 17.2301 0.176793 14.5001 2.00679C12.2081 1.38561 9.79215 1.38561 7.50014 2.00679C4.77014 0.176793 3.59014 0.526793 3.59014 0.526793C3.07651 1.72514 3.04428 3.0753 3.50014 4.29679C2.53026 5.31549 1.99266 6.67026 2.00014 8.07679C2.00014 13.4968 5.30013 14.6868 8.44013 15.0768C8.11113 15.4168 7.8574 15.8222 7.69544 16.2667C7.53349 16.7112 7.46694 17.1849 7.50014 17.6568V20.5268" stroke="white" stroke-linecap="round" stroke-linejoin="round"/>
<path d="M7.50012 18.5266C4.50012 19.4998 2.00012 18.5266 0.500122 15.5266" stroke="white" stroke-linecap="round" stroke-linejoin="round"/>
<path d="M51.7205 8.91744V7.00524H47.2339C47.2938 8.27186 47.2339 20.4996 47.2339 20.4996H51.7205V12.9634C51.7205 12.5593 51.7508 12.1576 51.8692 11.8693C52.194 11.0631 52.9312 10.2288 54.1719 10.2288C55.795 10.2288 56.4442 11.4666 56.4442 13.2803V20.5H60.9301V12.7617C60.9301 8.61649 58.7169 6.68841 55.7643 6.68804C53.3812 6.68804 52.3159 7.99977 51.7205 8.91744ZM51.7205 8.91744C51.7119 8.93224 51.7 8.9474 51.6913 8.96147H51.7205V8.91744ZM42.5391 0.5C41.0044 0.5 40.0001 1.5068 40.0001 2.8308C40.0001 4.12629 40.9748 5.16377 42.4796 5.16377H42.5099C44.0739 5.16377 45.0475 4.12629 45.0475 2.8308C45.0183 1.5068 44.0742 0.5 42.5391 0.5ZM40.2661 20.4996H44.7519V7.0056H40.2661V20.4996Z" stroke="white" stroke-miterlimit="10" stroke-linecap="round" stroke-linejoin="round"/>
<path d="M90.93 14.8478C93.3313 14.8478 95.2779 12.9012 95.2779 10.5C95.2779 8.09875 93.3313 6.15216 90.93 6.15216C88.5288 6.15216 86.5822 8.09875 86.5822 10.5C86.5822 12.9012 88.5288 14.8478 90.93 14.8478Z" stroke="white" stroke-linecap="round" stroke-linejoin="round"/>
<path d="M95.7127 0.5H86.1474C83.266 0.5 80.9301 2.83591 80.9301 5.71739V15.2826C80.9301 18.1641 83.266 20.5 86.1474 20.5H95.7127C98.5941 20.5 100.93 18.1641 100.93 15.2826V5.71739C100.93 2.83591 98.5941 0.5 95.7127 0.5Z" stroke="white" stroke-linecap="round" stroke-linejoin="round"/>
<path d="M96.5822 5.7174C97.0625 5.7174 97.4518 5.32808 97.4518 4.84784C97.4518 4.36759 97.0625 3.97827 96.5822 3.97827C96.102 3.97827 95.7126 4.36759 95.7126 4.84784C95.7126 5.32808 96.102 5.7174 96.5822 5.7174Z" fill="white"/>
<path d="M145.915 2.8742C144.958 3.26995 143.947 3.52251 142.917 3.62375C143.954 2.98704 144.747 2.01865 145.165 0.875442C144.161 1.47301 143.063 1.89544 141.917 2.12467C141.468 1.60686 140.911 1.1933 140.285 0.912827C139.659 0.632349 138.98 0.491697 138.294 0.500674C137.629 0.489797 136.969 0.610705 136.35 0.856426C135.732 1.10215 135.169 1.46782 134.693 1.93235C134.217 2.39688 133.837 2.95108 133.576 3.56299C133.315 4.1749 133.178 4.83241 133.173 5.49759C133.152 5.87667 133.194 6.25651 133.297 6.62188C131.321 6.55992 129.382 6.06989 127.613 5.18563C125.845 4.30137 124.289 3.04392 123.054 1.50005C122.529 2.22448 122.265 3.10499 122.304 3.99852C122.311 4.83497 122.518 5.65758 122.91 6.39685C123.301 7.13613 123.865 7.77035 124.553 8.24594C123.765 8.12919 123.004 7.87552 122.304 7.4964V7.62132C122.235 8.76814 122.592 9.90015 123.307 10.7996C124.022 11.699 125.044 12.3022 126.177 12.4933C125.727 12.6026 125.264 12.6447 124.803 12.6182C124.465 12.6385 124.126 12.5961 123.803 12.4933C124.12 13.5053 124.751 14.39 125.604 15.019C126.458 15.648 127.49 15.9886 128.55 15.9912C126.724 17.3914 124.481 18.1392 122.179 18.1149C121.759 18.1353 121.338 18.0932 120.93 17.9899C123.549 19.7382 126.653 20.6127 129.8 20.4884C139.169 20.4884 143.416 12.7431 143.416 6.1222V5.49759C144.403 4.78356 145.25 3.89433 145.915 2.8742Z" stroke="white" stroke-linecap="round" stroke-linejoin="round"/>
</svg>
